# xmcd
# 
# Track frame offsets:
#     150
#     44322
#     99739
#     168591
#     210328
# 
# Disc length: 3479
# 
# Revision: 2
# Processed by: cddbd v1.5.2PL0 Copyright (c) Steve Scherf et al.
# Submitted via: fre:ac v1.0.31
# 
DISCID=3c0d9505
DTITLE=Bela Bartok - Violin Concertos Nos. 1 &2, Isabelle Faust - Daniel Harding
DYEAR=2013
DGENRE=Classical
TTITLE0=Violin Concerto no.1, Sz 36 op posth - I Andante Sostenuto
TTITLE1=Violin Concerto no.1, Sz 36 op posth - II Allegro giocoso
TTITLE2=Violin Concerto no.2, Sz 112 - I Allegro non troppo
TTITLE3=Violin Concerto no.2, Sz 112 - II Andante tranquillo
TTITLE4=Violin Concerto no.2, Sz 112 - III Allegro molto
EXTD=YEAR: 2013
EXTT0=
EXTT1=
EXTT2=
EXTT3=
EXTT4=
PLAYORDER=
